<svg id="Layer_1" data-name="Layer 1" xmlns="http://www.w3.org/2000/svg" viewBox="0 0 602.45 248.52"><defs><style>.cls-1{opacity:0.3;}.cls-2{fill:none;stroke:#ddd;stroke-miterlimit:10;}.cls-3{fill:#ddd;}</style></defs><title>graph</title><g class="cls-1"><polyline class="cls-2" points="110.19 197.85 232.52 158.43 305.91 113.58 380.67 106.78 486.69 61.93"/><path class="cls-3" d="M110.19,199.39a1.54,1.54,0,1,1,1.54-1.54A1.54,1.54,0,0,1,110.19,199.39Z"/><path class="cls-3" d="M110.19,196.81a1,1,0,1,1-1,1,1,1,0,0,1,1-1m0-1a2,2,0,1,0,2,2,2,2,0,0,0-2-2Z"/><circle class="cls-3" cx="232.52" cy="158.43" r="1.54"/><path class="cls-3" d="M232.52,157.4a1,1,0,1,1-1,1,1,1,0,0,1,1-1m0-1a2,2,0,1,0,2,2,2,2,0,0,0-2-2Z"/><path class="cls-3" d="M305.91,115.12a1.54,1.54,0,1,1,1.54-1.54A1.54,1.54,0,0,1,305.91,115.12Z"/><path class="cls-3" d="M305.91,112.54a1,1,0,1,1-1,1,1,1,0,0,1,1-1m0-1a2,2,0,1,0,2,2,2,2,0,0,0-2-2Z"/><path class="cls-3" d="M380.67,108.32a1.54,1.54,0,1,1,1.54-1.54A1.54,1.54,0,0,1,380.67,108.32Z"/><path class="cls-3" d="M380.67,105.75a1,1,0,1,1-1,1,1,1,0,0,1,1-1m0-1a2,2,0,1,0,2,2,2,2,0,0,0-2-2Z"/><path class="cls-3" d="M486.68,63.47a1.54,1.54,0,1,1,1.54-1.54A1.54,1.54,0,0,1,486.68,63.47Z"/><path class="cls-3" d="M486.68,60.89a1,1,0,1,1-1,1,1,1,0,0,1,1-1m0-1a2,2,0,1,0,2,2,2,2,0,0,0-2-2Z"/></g></svg>